<svg width="127" height="48" viewBox="0 0 127 48" fill="none" xmlns="http://www.w3.org/2000/svg">
<g style="mix-blend-mode:luminosity" clip-path="url(#clip0_333_1359)">
<path fill-rule="evenodd" clip-rule="evenodd" d="M126.1 30.5633C120.844 38.4606 112.521 36.1691 110.021 34.3749C108.957 35.0147 107.092 36.417 104.604 36.255C99.3068 35.9104 97.4097 29.2007 97.4097 29.2007C97.4477 29.2275 95.8316 29.6949 94.9582 29.6866C94.9469 31.6542 93.0278 36.3546 87.8485 36.2945C82.0365 36.2273 80.855 28.5531 80.855 28.5531C80.855 28.5531 80.2766 29.2649 78.0775 29.9739C78.1882 28.4622 78.1073 36.0644 71.1414 36.1761C65.6345 36.2646 64.1479 28.4348 64.1479 28.4348C64.1479 28.4348 63.1926 29.3143 61.3411 29.6194C61.4588 28.0831 61.2675 36.2019 54.3008 36.1761C49.5928 36.1588 47.984 31.353 48.1091 30.686C48.2688 29.8359 46.5179 36.2957 41.9448 36.195C40.0576 36.1459 38.6507 34.9349 37.7678 33.3204C36.5859 34.5189 34.87 36.195 32.9451 36.195C29.4898 36.195 27.9665 33.6337 28.2245 26.3179C28.2465 25.4502 28.1759 25.109 27.2027 24.9792C26.6185 24.8928 26.0203 24.7292 25.3873 24.643C25.1844 25.243 23.4637 35.9998 17.5469 36.204C15.5619 36.2725 14.4765 34.7485 13.5851 33.6174C12.2187 35.2194 10.415 36.255 7.84548 36.255C3.4929 36.255 0.527344 33.1365 0.527344 29.2895C0.527344 25.4425 3.4929 22.3242 7.84548 22.3242C8.61507 22.3242 8.8311 22.422 9.53416 22.6038C8.0883 10.9365 11.5029 9.11303 14.4899 9.11303C17.3575 9.11303 22.2567 15.012 15.3632 29.9751C16.8937 34.4381 20.1931 34.1857 21.7786 24.9982C22.1013 23.1307 21.2385 20.6105 22.5805 20.2588C25.0338 19.616 25.2941 21.5446 26.4444 21.866C27.6607 22.2056 28.3707 22.1724 29.5383 22.3885C31.5335 22.7339 32.3121 23.6838 32.0691 25.7996C31.7771 28.4767 31.2665 32.3732 32.8235 32.8481C33.9463 33.1931 35.9963 31.1293 36.3561 30.0001C36.7157 28.871 36.7908 28.4845 36.8227 27.6563C36.8714 25.8861 36.9325 24.5886 37.273 23.2499C37.4188 22.7319 37.585 22.3888 38.2462 22.3654C38.7903 22.3531 39.7854 22.2079 40.2234 22.51C40.8073 22.8988 40.7343 23.2933 40.6673 24.3316C39.9883 39.1353 45.2143 31.7452 46.7724 25.8279C46.2176 19.1369 46.5985 9.23555 51.3294 9.06949C53.7898 8.98313 54.8775 10.7301 54.9972 12.034C55.3356 15.7168 53.44 21.8172 50.9469 25.9197C49.5221 34.2907 57.1766 35.9459 58.4007 29.2642C56.398 28.4202 54.2336 25.0044 55.9949 23.3397C56.9831 22.4055 61.0969 23.7476 61.1642 26.6748C63.1822 26.1965 63.4516 25.1867 63.4795 25.354C62.9248 18.663 63.4393 9.23564 68.1705 9.06957C70.6306 8.98321 71.7181 10.7301 71.8378 12.0341C72.1762 15.7168 70.2806 21.8173 67.7879 25.9199C66.3629 34.2907 74.0175 35.946 75.2413 29.2643C73.7586 29.0107 70.6286 25.3775 72.4345 23.3398C73.3996 22.2509 77.4983 24.5154 77.9572 26.7717C79.8957 26.2855 80.159 25.3078 80.1868 25.4724C79.6319 18.7816 80.1464 9.35422 84.8776 9.18815C87.3377 9.10179 88.4252 10.8487 88.5449 12.1527C88.8833 15.8354 86.9877 21.936 84.4946 26.0385C83.07 34.4095 90.7244 36.0644 91.9485 29.3827C89.9109 29.082 87.0151 25.2458 89.3458 23.2833C90.277 22.4992 93.835 24.5346 94.6679 26.8568C95.8252 26.8173 96.5455 26.4636 96.6999 26.4279C94.8524 18.573 96.2278 9.14836 101.317 9.06969C104.068 9.02721 106.757 10.3877 105.577 17.8606C104.45 24.9906 100.4 27.9827 100.409 28.0285C100.645 28.8827 102.723 36.0312 107.957 32.2594C107.686 31.7157 107.415 31.1603 107.263 30.4874C106.396 26.5677 108.1 22.1404 112.731 21.4249C115.384 21.0149 117.883 22.1598 118.279 24.741C118.929 28.9645 114.626 32.0233 112.989 32.6868C112.257 32.3178 119.633 36.5107 124.011 28.108C124.265 27.6282 124.571 27.6689 124.967 27.9162C125.247 28.0908 126.842 29.4299 126.1 30.5633ZM11.0116 28.2517C10.7889 27.6615 10.3317 26.361 10.1701 25.7976C9.27986 25.1114 8.64444 25 7.50174 25C4.96231 25 3.46764 27.0809 3.46764 29.3247C3.46764 31.5684 5.09597 33.6496 7.63542 33.6496C9.83614 33.6496 11.5111 32.3235 12.0221 30.4462C11.6644 29.7143 11.3096 29.0417 11.0116 28.2517ZM14.4276 12.2015C12.6433 12.2015 12.038 15.974 12.1555 19.1924C12.2594 22.0378 13.1565 24.5428 13.6218 25.6653C13.74 25.8059 13.7181 25.7144 13.8235 25.8636C16.9217 19.8472 15.6367 12.2015 14.4276 12.2015ZM51.5842 12.32C49.278 12.0855 49.2929 20.6001 49.5792 22.51C50.777 20.8118 52.8576 12.7772 51.5842 12.32ZM68.4248 12.32C66.1187 12.0855 66.1336 20.6001 66.42 22.51C67.6176 20.8118 69.6984 12.7772 68.4248 12.32ZM85.1321 12.4384C82.8257 12.204 82.8406 20.7186 83.1271 22.6287C84.3247 20.9303 86.4055 12.8956 85.1321 12.4384ZM101.572 11.8215C97.9786 12.461 98.8153 23.0789 99.361 24.9412C103.593 19.789 103.681 11.628 101.572 11.8215ZM115.038 25.0903C114.855 24.4133 113.942 24.0515 113.311 24.1407C111.507 24.359 109.757 26.3505 110.435 29.3824C110.585 30.0576 110.963 30.6792 110.957 30.6585C114.994 28.2577 115.338 26.3659 115.038 25.0903ZM38.9535 20.0218C38.4379 20.0219 37.9338 19.8864 37.505 19.6326C37.0763 19.3787 36.742 19.0179 36.5446 18.5957C36.3471 18.1735 36.2955 17.7089 36.3961 17.2607C36.4966 16.8124 36.745 16.4007 37.1095 16.0775C37.4741 15.7543 37.9386 15.5342 38.4443 15.4451C38.95 15.3559 39.4743 15.4016 39.9507 15.5765C40.4271 15.7514 40.8342 16.0476 41.1207 16.4276C41.4071 16.8076 41.56 17.2544 41.56 17.7114C41.56 18.0148 41.4927 18.3152 41.3616 18.5955C41.2307 18.8758 41.0388 19.1305 40.7967 19.345C40.5546 19.5596 40.2673 19.7298 39.951 19.8459C39.6348 19.962 39.2959 20.0218 38.9535 20.0218Z" fill="#0D0C22"/>
</g>
<defs>
<clipPath id="clip0_333_1359">
<rect width="126.369" height="48" fill="white" transform="translate(0.527344)"/>
</clipPath>
</defs>
</svg>
