<svg width="130" height="48" viewBox="0 0 130 48" fill="none" xmlns="http://www.w3.org/2000/svg">
<g style="mix-blend-mode:luminosity" clip-path="url(#clip0_333_1360)">
<path d="M14.3135 13.1064V22.1942H4.89657V13.1064H0.425781V34.7997H4.89657V26.0071H14.3135V34.7997H18.7843V13.1064H14.3135Z" fill="#33475B"/>
<path d="M33.0925 27.7869C33.0925 28.6563 32.7028 29.4901 32.0092 30.1049C31.3156 30.7196 30.3748 31.065 29.3939 31.065C28.4129 31.065 27.4722 30.7196 26.7785 30.1049C26.0849 29.4901 25.6952 28.6563 25.6952 27.7869V18.4953H21.4545V27.7869C21.4545 29.6513 22.2901 31.4394 23.7776 32.7578C25.2651 34.0761 27.2826 34.8168 29.3862 34.8168C31.4898 34.8168 33.5073 34.0761 34.9948 32.7578C36.4823 31.4394 37.318 29.6513 37.318 27.7869V18.4953H33.0925V27.7869Z" fill="#33475B"/>
<path d="M64.5139 19.4529C64.5139 17.5484 65.9355 16.9446 67.493 16.9446C68.7481 16.9446 70.4063 17.7911 71.4906 18.8181L74.2681 15.9176C72.8816 14.2558 70.069 13.1065 67.7668 13.1065C63.1667 13.1065 59.8394 15.4944 59.8394 19.4529C59.8394 26.7973 69.9682 24.4676 69.9682 28.5775C69.9682 29.8453 68.5794 30.9655 66.9891 30.9655C64.481 30.9655 63.6684 29.8783 62.5162 28.729L59.4342 31.5693C61.4056 33.7145 63.837 34.8036 66.7504 34.8036C71.1204 34.8036 74.6361 32.3866 74.6361 28.6086C74.6361 20.4547 64.5073 22.9882 64.5073 19.4529" fill="#33475B"/>
<path d="M127.175 31.3341C124.669 31.3341 123.957 30.3731 123.957 28.9015V22.3881H127.852V19.0877H123.957V14.7331L119.657 16.4435V29.7111C119.657 33.1047 122.299 34.815 125.922 34.815C126.49 34.8242 127.058 34.7839 127.618 34.6947L128.667 31.272C128.194 31.3011 127.65 31.3302 127.175 31.3302" fill="#33475B"/>
<path d="M49.2353 18.6049C47.1346 18.6049 45.6692 19.1446 44.2519 20.3774V13.2369H40.0046V26.4715C40.0046 31.4259 44.046 34.8195 48.5869 34.8195C53.625 34.8195 58.0564 31.3658 58.0564 26.7141C58.0564 22.1208 53.9777 18.6068 49.2353 18.6068V18.6049ZM49.209 31.0318C48.2559 31.0318 47.3241 30.7813 46.5317 30.312C45.7392 29.8427 45.1215 29.1757 44.7567 28.3952C44.392 27.6148 44.2966 26.756 44.4825 25.9275C44.6685 25.099 45.1274 24.3379 45.8014 23.7406C46.4753 23.1433 47.334 22.7365 48.2688 22.5717C49.2036 22.4069 50.1726 22.4915 51.0532 22.8148C51.9337 23.138 52.6864 23.6855 53.2159 24.3878C53.7454 25.0902 54.0281 25.916 54.0281 26.7607C54.0281 27.8935 53.5203 28.9799 52.6166 29.7809C51.7128 30.5818 50.4871 31.0318 49.209 31.0318Z" fill="#33475B"/>
<path d="M95.3536 26.5153C95.3536 21.8559 90.931 18.4099 85.8841 18.4099C81.3433 18.4099 77.3018 21.8035 77.3018 26.758V40.0003H81.5492V32.8501C82.9642 34.0809 84.4318 34.6226 86.5303 34.6226C91.2727 34.6226 95.3514 31.1106 95.3514 26.5153H95.3536ZM91.3319 26.4687C91.3319 27.3134 91.0492 28.1392 90.5197 28.8416C89.9902 29.544 89.2375 30.0914 88.357 30.4147C87.4764 30.7379 86.5075 30.8225 85.5726 30.6577C84.6378 30.4929 83.7792 30.0861 83.1052 29.4888C82.4312 28.8915 81.9723 28.1304 81.7863 27.3019C81.6004 26.4734 81.6958 25.6146 82.0606 24.8342C82.4253 24.0538 83.043 23.3867 83.8355 22.9174C84.628 22.4481 85.5597 22.1976 86.5128 22.1976C87.7909 22.1976 89.0166 22.6476 89.9204 23.4486C90.8242 24.2495 91.3319 25.3359 91.3319 26.4687Z" fill="#33475B"/>
<path d="M109.033 18.3496V14.6066C109.591 14.3756 110.063 14.0088 110.395 13.5489C110.727 13.089 110.905 12.555 110.908 12.009V11.9216C110.905 11.1587 110.562 10.4276 109.954 9.88807C109.345 9.34858 108.52 9.04458 107.659 9.04254H107.561C106.7 9.04458 105.875 9.34858 105.266 9.88807C104.657 10.4276 104.314 11.1587 104.312 11.9216V12.009C104.315 12.555 104.492 13.089 104.824 13.5489C105.156 14.0088 105.629 14.3756 106.187 14.6066V18.3496C104.582 18.5671 103.071 19.1565 101.806 20.0581L90.2097 12.0614C90.2922 11.7976 90.3364 11.5256 90.3411 11.2519C90.342 10.6095 90.1279 9.98128 89.7259 9.44673C89.324 8.91217 88.7522 8.49527 88.0829 8.24873C87.4136 8.00219 86.6768 7.93708 85.9658 8.06166C85.2547 8.18623 84.6013 8.49487 84.0882 8.94857C83.5751 9.40226 83.2252 9.98063 83.083 10.6105C82.9407 11.2404 83.0124 11.8936 83.289 12.4873C83.5656 13.0811 84.0346 13.5889 84.6368 13.9464C85.2389 14.3039 85.9472 14.4952 86.672 14.496C87.3087 14.4939 87.9335 14.3432 88.4836 14.0591L99.885 21.9257C98.8581 23.2989 98.3223 24.9146 98.3477 26.5619C98.3731 28.2091 98.9585 29.8113 100.027 31.1591L96.5577 34.2343C96.2792 34.1557 95.9891 34.1138 95.6968 34.11C95.1011 34.11 94.5188 34.2666 94.0235 34.5599C93.5282 34.8532 93.1421 35.2701 92.9142 35.7579C92.6862 36.2457 92.6266 36.7824 92.7428 37.3002C92.859 37.818 93.1459 38.2937 93.5671 38.667C93.9883 39.0403 94.525 39.2946 95.1092 39.3976C95.6935 39.5006 96.2991 39.4477 96.8494 39.2457C97.3998 39.0436 97.8702 38.7015 98.2011 38.2625C98.5321 37.8235 98.7087 37.3074 98.7087 36.7794C98.7047 36.5204 98.6575 36.2633 98.5686 36.0165L102.001 32.9743C103.122 33.7328 104.423 34.2544 105.805 34.4993C107.188 34.7441 108.615 34.7058 109.979 34.3871C111.342 34.0685 112.605 33.478 113.672 32.6607C114.738 31.8434 115.58 30.8209 116.133 29.6713C116.686 28.5217 116.935 27.2754 116.861 26.0275C116.787 24.7796 116.393 23.5631 115.708 22.4709C115.023 21.3786 114.066 20.4395 112.909 19.7253C111.752 19.0111 110.426 18.5405 109.033 18.3496ZM107.611 30.6621C106.672 30.6621 105.753 30.4152 104.973 29.9527C104.192 29.4902 103.583 28.8329 103.223 28.0638C102.864 27.2947 102.77 26.4484 102.953 25.632C103.136 24.8155 103.589 24.0655 104.253 23.4769C104.917 22.8883 105.763 22.4874 106.684 22.325C107.606 22.1626 108.56 22.2459 109.428 22.5645C110.296 22.8831 111.038 23.4225 111.56 24.1147C112.081 24.8069 112.36 25.6206 112.36 26.4531C112.36 27.5694 111.86 28.6399 110.969 29.4293C110.078 30.2186 108.87 30.6621 107.611 30.6621Z" fill="#FF7A59"/>
</g>
<defs>
<clipPath id="clip0_333_1360">
<rect width="128.626" height="48" fill="white" transform="translate(0.425781)"/>
</clipPath>
</defs>
</svg>
