<svg width="147" height="48" viewBox="0 0 147 48" fill="none" xmlns="http://www.w3.org/2000/svg">
<g style="mix-blend-mode:luminosity" clip-path="url(#clip0_333_1361)">
<path d="M51.2809 34.7749V20.2199H51.5735L63.5274 34.7749H67.2891V13.4006H63.1094V27.919H62.8168L50.8629 13.4006H47.1012V34.7749H51.2809ZM79.1177 35.1049C84.6349 35.1049 88.0205 31.9519 88.0205 26.6725C88.0205 21.4297 84.6349 18.2401 79.1177 18.2401C73.6423 18.2401 70.2149 21.4297 70.2149 26.6725C70.2567 31.9519 73.6005 35.1049 79.1177 35.1049ZM79.1177 32.0252C76.1919 32.0252 74.52 30.0821 74.52 26.6725C74.52 23.2995 76.1919 21.3198 79.1177 21.3198C82.0435 21.3198 83.7154 23.2995 83.7154 26.6725C83.7154 30.0821 82.0435 32.0252 79.1177 32.0252ZM91.824 14.6105V18.68H88.8982V21.6131H91.824V30.4487C91.824 33.6017 93.4959 34.8483 97.7591 34.8483C98.5533 34.8483 99.3475 34.7749 99.9744 34.6649V31.8053C99.4728 31.8419 99.1385 31.8786 98.5533 31.8786C96.7978 31.8786 96.0037 31.182 96.0037 29.5688V21.6131H99.9744V18.68H96.0037V14.6105H91.824ZM102.482 34.7749H106.662V18.5701H102.482V34.7749ZM104.572 15.8937C105.951 15.8937 107.08 14.9038 107.08 13.6939C107.08 12.4474 105.951 11.4575 104.572 11.4575C103.193 11.4575 102.064 12.4474 102.064 13.6939C102.064 14.9038 103.193 15.8937 104.572 15.8937ZM118.114 35.1049C123.632 35.1049 127.017 31.9519 127.017 26.6725C127.017 21.4297 123.632 18.2401 118.114 18.2401C112.639 18.2401 109.212 21.4297 109.212 26.6725C109.212 31.9519 112.555 35.1049 118.114 35.1049ZM118.114 32.0252C115.189 32.0252 113.517 30.0821 113.517 26.6725C113.517 23.2995 115.189 21.3198 118.114 21.3198C120.998 21.3198 122.712 23.2995 122.712 26.6725C122.67 30.0821 120.998 32.0252 118.114 32.0252ZM129.483 34.7749H133.663V25.3526C133.663 22.9696 135.251 21.4664 137.717 21.4664C140.267 21.4664 141.437 22.7129 141.437 25.1693V34.7749H145.617V24.2894C145.617 20.4032 143.36 18.2401 139.264 18.2401C136.505 18.2401 134.666 19.34 133.788 21.1731H133.496V18.5701H129.441C129.483 18.5701 129.483 34.7749 129.483 34.7749Z" fill="black"/>
<path fill-rule="evenodd" clip-rule="evenodd" d="M7.02498 12.0326C8.24149 12.9024 8.6815 12.8337 10.9592 12.6964L32.4163 11.5519C32.8822 11.5519 32.494 11.1399 32.3387 11.0941L28.7668 8.82806C28.0939 8.37028 27.1621 7.82093 25.4279 7.95826L4.66962 9.30874C3.919 9.37741 3.7637 9.72075 4.0743 9.97254L7.02498 12.0326ZM8.31914 16.4502V36.4098C8.31914 37.4857 8.91445 37.8748 10.2863 37.8061L33.8658 36.593C35.2376 36.5243 35.3929 35.7918 35.3929 34.922V15.0998C35.3929 14.23 35.0047 13.7493 34.1764 13.818L9.53565 15.0998C8.62974 15.1684 8.31914 15.5804 8.31914 16.4502ZM31.5881 17.5261C31.7434 18.1212 31.5881 18.7392 30.9151 18.8079L29.7763 19.0139V33.7547C28.7927 34.2125 27.8868 34.4871 27.1103 34.4871C25.8938 34.4871 25.5832 34.1438 24.6773 33.1367L17.2488 22.8135V32.7933L19.6042 33.2511C19.6042 33.2511 19.6042 34.4642 17.7147 34.4642L12.4863 34.7389C12.331 34.4642 12.4863 33.8005 13.004 33.6631L14.3758 33.3198V20.1355L12.4863 19.9981C12.331 19.403 12.7193 18.5332 13.7805 18.4645L19.3971 18.1212L27.1362 28.5588V19.3343L25.1691 19.1283C25.0138 18.3959 25.635 17.8465 26.3856 17.7778L31.5881 17.5261ZM2.93544 7.47759L24.5479 6.08133C27.1879 5.87532 27.8868 6.01266 29.5433 7.08847L36.4282 11.3688C37.5671 12.1013 37.9553 12.3073 37.9553 13.1084V36.6159C37.9553 38.0808 37.36 38.9506 35.2376 39.0879L10.1568 40.4384C8.55209 40.5071 7.80148 40.3011 6.97322 39.3626L1.87424 33.5258C0.968325 32.45 0.580078 31.6488 0.580078 30.7104V9.81231C0.580078 8.59917 1.20127 7.61492 2.93544 7.47759Z" fill="black"/>
</g>
<defs>
<clipPath id="clip0_333_1361">
<rect width="145.551" height="48" fill="white" transform="translate(0.580078)"/>
</clipPath>
</defs>
</svg>
