<svg width="126" height="48" viewBox="0 0 126 48" fill="none" xmlns="http://www.w3.org/2000/svg">
<g style="mix-blend-mode:luminosity" clip-path="url(#clip0_333_1362)">
<path d="M17.8801 38.0663C15.996 38.3595 14.0788 38.4474 12.0955 38.6816L6.04618 22.9786V39.3555C4.16208 39.5313 2.44323 39.7656 0.658203 40V10H5.68279L12.5582 27.0217V10H17.8801V38.0663ZM28.2927 20.9863C30.3423 20.9863 33.4825 20.8984 35.3666 20.8984V25.5858C33.0196 25.5858 30.2761 25.5858 28.2927 25.6737V32.6465C31.4001 32.4708 34.5073 32.2362 37.6474 32.1483V36.6597L23.0037 37.6854V10H37.6474V14.6875H28.2927V20.9863ZM57.3155 14.6876H51.8283V36.2501C50.0433 36.2501 48.2582 36.2501 46.5396 36.3085V14.6876H41.0525V10H57.3157L57.3155 14.6876ZM65.9099 20.6642H73.1492V25.3516H65.9099V35.9864H60.7198V10H75.4961V14.6875H65.9099V20.6642ZM84.0905 31.8848C87.0986 31.9432 90.1396 32.1486 93.0817 32.2948V36.9238C88.3548 36.66 83.6278 36.3966 78.8017 36.3085V10H84.0905V31.8848ZM97.5441 37.2461C99.2299 37.3341 101.015 37.422 102.734 37.5975V10H97.5441V37.2461ZM125.906 10L119.196 24.2676L125.906 40C123.922 39.7656 121.939 39.4433 119.956 39.1503L116.155 30.4786L112.287 38.4474C110.37 38.1542 108.519 38.0663 106.602 37.8319L113.411 24.0917L107.263 10H112.948L116.419 17.8809L120.121 10H125.906V10Z" fill="#D81F26"/>
</g>
<defs>
<clipPath id="clip0_333_1362">
<rect width="125.241" height="48" fill="white" transform="translate(0.658203)"/>
</clipPath>
</defs>
</svg>
