<svg width="136" height="48" viewBox="0 0 136 48" fill="none" xmlns="http://www.w3.org/2000/svg">
<g style="mix-blend-mode:luminosity">
<path fill-rule="evenodd" clip-rule="evenodd" d="M83.9914 37.8069C76.1237 42.4973 64.72 44.9998 54.9016 44.9998C41.1346 44.9998 28.7408 40.8814 19.3644 34.0316C18.6278 33.493 19.2878 32.7589 20.1718 33.1784C30.2908 37.9403 42.8025 40.8051 55.7267 40.8051C64.443 40.8051 74.0316 39.3465 82.8481 36.3196C84.18 35.862 85.2939 37.0251 83.9914 37.8069Z" fill="#FF9900"/>
<path fill-rule="evenodd" clip-rule="evenodd" d="M87.2623 34.78C86.2605 33.7409 80.6146 34.2891 78.0805 34.5322C77.3084 34.6084 77.1906 34.065 77.886 33.6741C82.3826 31.1144 89.7611 31.8533 90.6216 32.7113C91.482 33.574 90.3976 39.5563 86.1721 42.4115C85.5238 42.8501 84.905 42.6165 85.1938 42.035C86.1426 40.1187 88.2701 35.8239 87.2623 34.78Z" fill="#FF9900"/>
<path fill-rule="evenodd" clip-rule="evenodd" d="M78.2585 15.6036V13.1154C78.2585 12.7388 78.6121 12.4862 79.0364 12.4862H92.8093C93.2513 12.4862 93.6049 12.7436 93.6049 13.1154V15.2461C93.599 15.6036 93.2277 16.0708 92.5676 16.8096L85.4307 25.0513C88.0828 24.9988 90.8821 25.3182 93.2866 26.4145C93.8288 26.6624 93.9762 27.0247 94.0174 27.3822V30.0373C94.0174 30.3995 93.5224 30.8238 93.0038 30.6045C88.7664 28.8074 83.1382 28.612 78.453 30.6236C77.9756 30.8333 77.4747 30.4138 77.4747 30.0516V27.53C77.4747 27.1248 77.4805 26.4336 77.9815 25.8187L86.2499 16.2281H79.0541C78.6121 16.2281 78.2585 15.9754 78.2585 15.6036Z" fill="black"/>
<path fill-rule="evenodd" clip-rule="evenodd" d="M28.0172 31.1289H23.8271C23.4263 31.105 23.1081 30.8619 23.0786 30.5521V13.1583C23.0786 12.8104 23.4381 12.5339 23.886 12.5339H27.7933C28.2 12.5482 28.5241 12.8008 28.5536 13.1154V15.3892H28.6302C29.6497 13.1917 31.5651 12.1669 34.1464 12.1669C36.7689 12.1669 38.4073 13.1917 39.586 15.3892C40.5996 13.1917 42.904 12.1669 45.3733 12.1669C47.1295 12.1669 49.0508 12.7532 50.2236 14.0688C51.5496 15.5322 51.2785 17.6581 51.2785 19.5219L51.2726 30.4997C51.2726 30.8476 50.9131 31.1289 50.4652 31.1289H46.2809C45.8625 31.105 45.5265 30.8333 45.5265 30.4997V21.2808C45.5265 20.5468 45.609 18.7163 45.4087 18.0204C45.0963 16.8526 44.1593 16.5236 42.9452 16.5236C41.9316 16.5236 40.8707 17.0718 40.4405 17.9489C40.0103 18.826 40.0516 20.2941 40.0516 21.2808V30.4997C40.0516 30.8476 39.6921 31.1289 39.2442 31.1289H35.0599C34.6355 31.105 34.3055 30.8333 34.3055 30.4997L34.2996 21.2808C34.2996 19.3408 34.6945 16.4855 31.7183 16.4855C28.7068 16.4855 28.8247 19.2693 28.8247 21.2808V30.4997C28.8247 30.8476 28.4651 31.1289 28.0172 31.1289Z" fill="black"/>
<path fill-rule="evenodd" clip-rule="evenodd" d="M105.462 12.1669C111.68 12.1669 115.045 16.4855 115.045 21.9768C115.045 27.2821 111.326 31.4911 105.462 31.4911C99.3567 31.4911 96.0328 27.1725 96.0328 21.7909C96.0328 16.3759 99.3979 12.1669 105.462 12.1669ZM105.498 15.7181C102.409 15.7181 102.215 19.1215 102.215 21.2427C102.215 23.3686 102.174 27.9066 105.462 27.9066C108.709 27.9066 108.863 24.2457 108.863 22.0149C108.863 20.5468 108.786 18.7926 108.238 17.4007C107.767 16.19 106.829 15.7181 105.498 15.7181Z" fill="black"/>
<path fill-rule="evenodd" clip-rule="evenodd" d="M123.107 31.1289H118.935C118.516 31.105 118.18 30.8333 118.18 30.4997L118.174 13.1011C118.21 12.7818 118.558 12.5339 118.982 12.5339H122.866C123.231 12.5482 123.532 12.7484 123.614 13.0201V15.6799H123.691C124.863 13.3013 126.508 12.1669 129.401 12.1669C131.281 12.1669 133.114 12.715 134.293 14.2166C135.389 15.6084 135.389 17.9489 135.389 19.6315V30.5807C135.342 30.8858 134.994 31.1289 134.582 31.1289H130.38C129.997 31.105 129.678 30.8762 129.637 30.5807V21.1331C129.637 19.2311 129.908 16.4474 127.015 16.4474C125.995 16.4474 125.058 17.0003 124.592 17.8393C124.003 18.9022 123.926 19.9605 123.926 21.1331V30.4997C123.921 30.8476 123.555 31.1289 123.107 31.1289Z" fill="black"/>
<path fill-rule="evenodd" clip-rule="evenodd" d="M67.2791 22.8204C67.2791 24.1408 67.3204 25.2419 66.4953 26.4146C65.8293 27.3679 64.7685 27.9542 63.5957 27.9542C61.9869 27.9542 61.0439 26.9627 61.0439 25.4993C61.0439 22.6107 64.244 22.0864 67.2791 22.0864V22.8204ZM71.5047 31.0812C71.2277 31.2814 70.8269 31.2957 70.5146 31.1622C69.1237 30.2279 68.8703 29.7942 68.1101 28.9028C65.8117 30.7999 64.1792 31.3672 61.203 31.3672C57.6729 31.3672 54.9325 29.6083 54.9325 26.0857C54.9325 23.3353 56.7712 21.4619 59.3997 20.5467C61.6745 19.7364 64.851 19.5934 67.2791 19.3693V18.9308C67.2791 18.1252 67.3557 17.1719 66.7664 16.476C66.2596 15.8515 65.2813 15.5941 64.4149 15.5941C62.8178 15.5941 61.3975 16.2567 61.0498 17.6295C60.9791 17.9346 60.7021 18.2349 60.319 18.2492L56.2585 17.8964C55.9167 17.8345 55.5336 17.6104 55.6338 17.1862C56.5649 13.2012 61.0203 12 65.0043 12C67.0434 12 69.7072 12.4385 71.3161 13.6874C73.3552 15.2271 73.1607 17.2815 73.1607 19.5171V24.7986C73.1607 26.386 73.974 27.0819 74.7402 27.9399C75.0054 28.245 75.0643 28.612 74.7225 28.8408C73.8679 29.4176 72.3474 30.4901 71.5106 31.0907L71.5047 31.0812Z" fill="black"/>
<path fill-rule="evenodd" clip-rule="evenodd" d="M12.3467 22.8204C12.3467 24.1408 12.3879 25.2419 11.5628 26.4145C10.8969 27.3679 9.84196 27.9542 8.66328 27.9542C7.05439 27.9542 6.11734 26.9627 6.11734 25.4993C6.11734 22.6107 9.31745 22.0864 12.3467 22.0864V22.8204ZM16.5722 31.0812C16.2952 31.2814 15.8945 31.2957 15.5821 31.1622C14.1913 30.2279 13.9438 29.7941 13.1776 28.9028C10.8792 30.7999 9.25263 31.3672 6.27057 31.3672C2.74632 31.3672 0 29.6082 0 26.0856C0 23.3352 1.84463 21.4619 4.46719 20.5467C6.74204 19.7364 9.91858 19.5934 12.3467 19.3693V18.9308C12.3467 18.1252 12.4233 17.1719 11.8398 16.4759C11.3271 15.8515 10.3488 15.5941 9.48836 15.5941C7.89125 15.5941 6.46505 16.2567 6.11734 17.6295C6.04662 17.9346 5.76963 18.2349 5.39245 18.2492L1.32601 17.8964C0.984196 17.8345 0.607018 17.6104 0.701313 17.1862C1.63836 13.2012 6.08787 12 10.0718 12C12.1109 12 14.7747 12.4385 16.3836 13.6874C18.4227 15.2271 18.2283 17.2815 18.2283 19.5171V24.7986C18.2283 26.3859 19.0415 27.0819 19.8077 27.9399C20.0788 28.245 20.1377 28.612 19.7959 28.8408C18.9414 29.4176 17.4209 30.4901 16.584 31.0907L16.5722 31.0812Z" fill="black"/>
</g>
</svg>
